<svg width="119" height="42" viewBox="0 0 119 42" fill="none" xmlns="http://www.w3.org/2000/svg">
<path fill-rule="evenodd" clip-rule="evenodd" d="M23.8999 1.44212C23.688 1.89897 23.1817 2.12347 22.715 1.99277L20.8414 6.58935C21.3559 6.80438 21.8556 7.04784 22.3386 7.31778L24.2396 3.84017C23.7637 3.5896 23.5645 3.009 23.7954 2.51742C24.0339 2.00957 24.6411 1.78904 25.1516 2.02487C25.1731 2.03481 25.1941 2.04541 25.2146 2.05663L25.2157 2.05452L25.2148 2.05675C25.6799 2.31156 25.8724 2.88505 25.644 3.37141C25.4295 3.82793 24.9172 4.05227 24.4451 3.92166L22.9056 7.65148C27.1149 10.2574 29.9206 14.9296 29.9206 20.26C29.9206 28.4343 23.3221 35.0609 15.1824 35.0609C13.5836 35.0609 12.0443 34.8053 10.6027 34.3324L7.23819 41.4961L6.21121 41.0217L9.53866 33.9369C9.20131 33.7964 8.87028 33.6436 8.54612 33.4792L5.70977 39.5943L4.69481 39.1195L7.56432 32.9329C3.29667 30.3401 0.444092 25.6346 0.444092 20.26C0.444092 12.0856 7.04264 5.45899 15.1824 5.45899C16.9197 5.45899 18.5868 5.76087 20.1345 6.31524L22.512 1.91123C22.0416 1.66047 21.8448 1.07945 22.073 0.587523C22.3087 0.0793049 22.9088 -0.141378 23.4133 0.0946126C23.4345 0.104565 23.4553 0.115171 23.4755 0.126395L23.4767 0.124288L23.4758 0.126521C23.9354 0.381509 24.1256 0.955417 23.8999 1.44212ZM12.5386 30.2107C13.382 30.4361 14.2682 30.5563 15.1824 30.5563C20.8448 30.5563 25.4351 25.9465 25.4351 20.26C25.4351 16.8074 23.7429 13.7517 21.1461 11.8837L12.5386 30.2107ZM20.1845 11.2701L11.4558 29.855C11.1082 29.7188 10.7698 29.564 10.4419 29.392L19.0935 10.7393C19.4689 10.895 19.8331 11.0725 20.1845 11.2701ZM18.0313 10.3664L9.47458 28.8145C6.73353 26.9663 4.92965 23.8247 4.92965 20.26C4.92965 14.5735 9.51995 9.96363 15.1824 9.96363C16.1709 9.96363 17.1268 10.1041 18.0313 10.3664ZM35.8291 28H37.48C38.588 28 39.5988 27.8166 40.5122 27.4497C41.4331 27.0754 42.223 26.5475 42.8818 25.8662C43.5482 25.1774 44.061 24.3538 44.4204 23.3955C44.7873 22.4372 44.9707 21.3778 44.9707 20.2173V19.4424C44.9707 18.2744 44.7873 17.215 44.4204 16.2642C44.061 15.3058 43.5482 14.4823 42.8818 13.7935C42.2155 13.1047 41.4256 12.5768 40.5122 12.21C39.6063 11.8356 38.6068 11.6484 37.5137 11.6484H35.8291H33.8525H32.4599V28H33.9199H35.8291ZM35.8291 25.3721H37.48C38.3634 25.3721 39.1084 25.1737 39.7148 24.7769C40.3213 24.3726 40.778 23.7848 41.0849 23.0137C41.3994 22.2425 41.5566 21.3104 41.5566 20.2173V19.4199C41.5566 18.5814 41.4668 17.8439 41.2871 17.2075C41.1149 16.5711 40.8566 16.0358 40.5122 15.6016C40.1678 15.1673 39.7448 14.8416 39.2432 14.6245C38.7415 14.3999 38.165 14.2876 37.5137 14.2876H35.8291V25.3721ZM50.4512 19.9851V28H47.2168V15.8486H50.2602L50.3675 17.3376C50.3983 17.282 50.4299 17.2274 50.4624 17.1738C50.7694 16.6797 51.1437 16.2979 51.5854 16.0283C52.0272 15.7588 52.5325 15.624 53.1016 15.624C53.2812 15.624 53.4647 15.639 53.6518 15.6689C53.839 15.6914 53.9925 15.7251 54.1123 15.77L54.0561 18.7686C53.8989 18.7461 53.708 18.7274 53.4834 18.7124C53.2663 18.6899 53.0679 18.6787 52.8882 18.6787C52.4315 18.6787 52.0347 18.7386 51.6977 18.8584C51.3683 18.9707 51.0913 19.1392 50.8667 19.3638C50.6957 19.5407 50.5572 19.7478 50.4512 19.9851ZM62.9352 26.7372C62.5749 27.1879 62.1308 27.5452 61.603 27.8091C61.034 28.0861 60.3639 28.2246 59.5928 28.2246C59.0013 28.2246 58.4547 28.1423 57.9531 27.9775C57.459 27.8053 57.0322 27.5396 56.6728 27.1802C56.321 26.8133 56.0439 26.3454 55.8418 25.7764C55.6471 25.1999 55.5498 24.5073 55.5498 23.6987V15.8486H58.7842V23.7212C58.7842 24.0806 58.8253 24.3838 58.9077 24.6309C58.9975 24.8779 59.1211 25.0801 59.2783 25.2373C59.4355 25.3945 59.619 25.5068 59.8286 25.5742C60.0457 25.6416 60.2853 25.6753 60.5474 25.6753C61.2137 25.6753 61.7378 25.5405 62.1196 25.271C62.4285 25.0571 62.6643 24.782 62.8271 24.4456V15.8486H66.0615V28H63.0181L62.9352 26.7372ZM71.7666 19.3814V28H68.521V15.8486H71.5644L71.6762 17.2399C72.0724 16.736 72.5555 16.3434 73.1255 16.062C73.7169 15.77 74.402 15.624 75.1807 15.624C75.7197 15.624 76.2139 15.7064 76.6631 15.8711C77.1123 16.0283 77.4979 16.2791 77.8198 16.6235C78.053 16.862 78.2487 17.153 78.4068 17.4965C78.46 17.4171 78.5151 17.3395 78.5723 17.2637C78.9691 16.7471 79.4595 16.3465 80.0434 16.062C80.6274 15.77 81.3013 15.624 82.0649 15.624C82.6489 15.624 83.1805 15.7101 83.6597 15.8823C84.1388 16.047 84.5469 16.3128 84.8838 16.6797C85.2282 17.0391 85.4902 17.5107 85.6699 18.0947C85.8571 18.6787 85.9507 19.3937 85.9507 20.2397V28H82.7051V20.2397C82.7051 19.6782 82.6302 19.2515 82.4805 18.9595C82.3382 18.66 82.1286 18.4541 81.8516 18.3418C81.582 18.222 81.2601 18.1621 80.8857 18.1621C80.4964 18.1621 80.1558 18.2407 79.8638 18.3979C79.5718 18.5477 79.3284 18.7573 79.1338 19.0269C79.0218 19.1819 78.9259 19.3519 78.8461 19.5367C78.8507 19.6522 78.853 19.7705 78.853 19.8916V28H75.6186V20.251C75.6186 19.6969 75.5438 19.2702 75.394 18.9707C75.2443 18.6712 75.0309 18.4616 74.7539 18.3418C74.4844 18.222 74.1587 18.1621 73.7768 18.1621C73.3576 18.1621 72.9907 18.2482 72.6763 18.4204C72.3693 18.5926 72.1147 18.8322 71.9126 19.1392C71.8604 19.2164 71.8118 19.2972 71.7666 19.3814ZM97.417 20.3279V10.7388H94.1826V28H97.417V24.2774L98.5816 23.0989L101.718 28H105.447L100.663 20.8819L105.076 15.8486H101.19L98.0347 19.5435L97.417 20.3279ZM109.883 28V15.8486H106.637V28H109.883ZM106.929 11.5137C106.6 11.8206 106.435 12.21 106.435 12.6816C106.435 13.1533 106.6 13.5426 106.929 13.8496C107.259 14.1566 107.7 14.3101 108.254 14.3101C108.801 14.3101 109.239 14.1566 109.568 13.8496C109.905 13.5426 110.074 13.1533 110.074 12.6816C110.074 12.21 109.905 11.8206 109.568 11.5137C109.239 11.2067 108.801 11.0532 108.254 11.0532C107.7 11.0532 107.259 11.2067 106.929 11.5137ZM118.508 18.1396V15.8486H116.419V12.8501H113.185V15.8486H111.433V18.1396H113.185V24.6646C113.185 25.5181 113.327 26.2069 113.611 26.731C113.896 27.255 114.3 27.6369 114.824 27.8765C115.356 28.1086 115.977 28.2246 116.688 28.2246C117.078 28.2246 117.433 28.1984 117.755 28.146C118.077 28.0936 118.377 28.0225 118.654 27.9326L118.643 25.5518C118.53 25.5742 118.392 25.5967 118.227 25.6191C118.07 25.6341 117.89 25.6416 117.688 25.6416C117.403 25.6416 117.168 25.6079 116.98 25.5405C116.793 25.4657 116.651 25.3346 116.554 25.1475C116.464 24.9603 116.419 24.6908 116.419 24.3389V18.1396H118.508Z" fill="black"/>
</svg>
